<svg xmlns="http://www.w3.org/2000/svg" width="400" height="330" viewBox="0 0 400 330"><rect width="400" height="330" fill="#0A0A0B"/><defs><linearGradient id="m" x1="110" y1="0" x2="10" y2="100" gradientUnits="userSpaceOnUse"><stop offset="0.0" stop-color="#FFFFFF"/><stop offset="0.38" stop-color="#E4E4E8"/><stop offset="0.72" stop-color="#A2A2A9"/><stop offset="1.0" stop-color="#6C6C73"/></linearGradient></defs><g transform="translate(136 30)"><path d="M64 0L128 100L101 100L62.6 40L30.7 52Z" fill="url(#m)"/><path d="M64 0L30.7 52L62.6 40Z" fill="#000" opacity="0.2"/><path d="M26.9 57.9L62.5 44.5L24 100L0 100Z" fill="url(#m)"/></g><path transform="translate(100 170) scale(1.18)" d="M1.5 27L14.5 3L27.5 27M52 27V3H66a8 8 0 0 1 0 16H52M94 4.5H120M94 15H116M94 25.5H120M142 3L168 27M168 3L142 27" stroke="#F4F4F5" stroke-width="3.2" fill="none"/><text x="200" y="250" fill="#A8A8B0" font-family="Inter, Helvetica, Arial, sans-serif" font-weight="500" font-size="12" letter-spacing="4.56" text-anchor="middle">TRAIN · ADAPT · PERFORM</text></svg>
