<svg xmlns="http://www.w3.org/2000/svg" width="560" height="140" viewBox="0 0 560 140"><rect width="560" height="140" fill="#FFFFFF"/><g transform="translate(20 20)"><path d="M64 0L128 100L101 100L62.6 40L30.7 52Z" fill="#0A0A0B"/><path d="M26.9 57.9L62.5 44.5L24 100L0 100Z" fill="#0A0A0B"/></g><path transform="translate(184 42) scale(1.95)" d="M1.5 27L14.5 3L27.5 27M52 27V3H66a8 8 0 0 1 0 16H52M94 4.5H120M94 15H116M94 25.5H120M142 3L168 27M168 3L142 27" stroke="#0A0A0B" stroke-width="3.2" fill="none"/><text x="184" y="120" fill="#55555C" font-family="Inter, Helvetica, Arial, sans-serif" font-weight="500" font-size="12" letter-spacing="4.56" text-anchor="start">TRAIN · ADAPT · PERFORM</text></svg>
